<?xml version="1.0" standalone="no"?>
<!DOCTYPE svg PUBLIC "-//W3C//DTD SVG 20010904//EN"
 "http://www.w3.org/TR/2001/REC-SVG-20010904/DTD/svg10.dtd">
<svg version="1.0" xmlns="http://www.w3.org/2000/svg"
 width="1080.000000pt" height="1080.000000pt" viewBox="0 0 1080.000000 1080.000000"
 preserveAspectRatio="xMidYMid meet">

<g transform="translate(0.000000,1080.000000) scale(0.100000,-0.100000)"
fill="#000000" stroke="none">
<path d="M2915 6900 c-23 -25 -13 -67 21 -82 21 -10 29 -8 54 11 17 12 30 17
30 11 0 -6 11 -16 25 -22 22 -10 30 -8 55 11 17 12 30 17 30 11 0 -6 11 -16
25 -22 22 -10 30 -8 55 11 17 12 30 17 30 11 0 -6 11 -15 25 -22 52 -23 100
46 59 86 -20 21 -53 20 -75 0 -17 -15 -19 -15 -34 0 -21 20 -53 20 -76 0 -17
-15 -19 -15 -34 0 -9 9 -26 16 -37 16 -12 0 -29 -7 -39 -16 -17 -15 -19 -15
-34 0 -22 22 -58 20 -80 -4z"/>
<path d="M3714 6895 c-15 -23 -15 -27 0 -51 24 -35 43 -40 74 -17 27 20 27 20
55 0 l27 -21 28 21 c27 20 28 20 51 2 29 -24 43 -24 66 0 17 20 17 20 45 -1
33 -24 52 -20 76 16 15 24 15 28 0 51 -21 31 -70 34 -88 6 -12 -20 -12 -20
-26 0 -8 11 -25 19 -42 19 -17 0 -34 -8 -42 -19 -14 -20 -14 -20 -26 0 -8 12
-23 19 -42 19 -19 0 -34 -7 -42 -19 -12 -20 -12 -20 -26 0 -20 28 -68 25 -88
-6z"/>
<path d="M4595 6904 c-23 -24 -15 -66 17 -83 25 -14 29 -14 57 7 17 12 31 18
31 12 0 -6 11 -16 25 -22 22 -10 30 -8 55 11 17 12 30 17 30 11 0 -6 11 -16
25 -22 22 -10 30 -8 55 11 17 12 30 17 30 11 0 -6 11 -15 25 -22 52 -23 100
46 59 86 -20 21 -53 20 -75 0 -17 -15 -19 -15 -34 0 -21 20 -53 20 -76 0 -17
-15 -19 -15 -34 0 -21 20 -59 21 -79 0 -15 -14 -17 -14 -32 0 -20 21 -58 20
-79 0z"/>
<path d="M5354 6894 c-16 -24 -16 -26 3 -52 l20 -27 -20 -28 -21 -27 21 -27
c20 -27 20 -28 1 -54 -16 -22 -17 -29 -7 -52 7 -15 16 -27 21 -27 5 0 -1 -13
-13 -29 -18 -25 -19 -32 -8 -52 6 -13 16 -27 22 -30 5 -4 0 -16 -12 -28 -24
-24 -21 -56 7 -78 14 -12 14 -14 -2 -26 -11 -8 -18 -26 -18 -42 0 -16 7 -34
18 -42 17 -13 17 -13 0 -26 -11 -8 -18 -26 -18 -42 0 -16 7 -34 18 -42 17 -13
17 -13 0 -26 -11 -8 -18 -26 -18 -42 0 -16 7 -34 18 -42 17 -13 17 -13 0 -26
-24 -17 -24 -67 0 -84 17 -13 17 -13 0 -26 -11 -8 -18 -26 -18 -42 0 -49 55
-72 90 -37 16 16 18 16 35 0 9 -10 26 -18 37 -18 11 0 28 8 38 18 16 16 18 16
35 0 9 -10 26 -18 37 -18 11 0 28 8 38 18 16 16 18 16 35 0 9 -10 26 -18 37
-18 11 0 28 8 38 18 16 16 18 16 35 0 22 -23 52 -23 76 1 18 18 19 18 35 0 9
-11 25 -19 36 -19 23 0 60 33 60 55 0 22 -37 55 -60 55 -11 0 -28 -8 -37 -17
-17 -17 -19 -17 -35 0 -10 9 -27 17 -38 17 -11 0 -28 -8 -37 -17 -17 -17 -19
-17 -35 0 -10 9 -27 17 -38 17 -11 0 -28 -8 -37 -17 -17 -17 -19 -17 -35 0
-10 9 -27 17 -38 17 -11 0 -28 -8 -37 -17 -17 -17 -19 -17 -35 0 -10 9 -27 17
-38 17 -11 0 -28 -8 -37 -17 -17 -17 -19 -17 -36 0 -17 17 -18 19 -2 31 23 17
22 66 -1 83 -17 13 -17 13 0 26 11 8 19 26 19 42 0 16 -8 34 -19 42 -17 13
-17 13 0 26 11 8 19 26 19 42 0 16 -8 34 -19 42 -17 13 -17 13 0 26 11 8 19
26 19 42 0 16 -8 34 -19 42 -17 13 -17 13 0 26 24 18 24 67 0 84 -13 9 -15 16
-8 21 6 4 17 18 23 31 11 20 10 27 -8 52 -12 16 -18 29 -13 29 5 0 14 12 21
27 10 23 9 30 -7 52 -19 26 -19 27 1 54 l21 27 -21 27 -20 28 20 27 c19 26 19
28 3 52 -11 18 -25 26 -46 26 -21 0 -35 -8 -46 -26z"/>
<path d="M6166 6904 c-22 -21 -20 -60 4 -77 19 -13 19 -13 0 -30 -11 -9 -20
-28 -20 -41 0 -14 9 -31 20 -39 19 -13 19 -13 0 -30 -11 -9 -20 -28 -20 -41 0
-14 9 -31 20 -39 19 -13 19 -13 0 -30 -11 -9 -20 -28 -20 -41 0 -14 9 -31 20
-39 19 -13 19 -13 0 -30 -26 -22 -26 -62 0 -80 l20 -14 -20 -18 c-11 -10 -20
-28 -20 -41 0 -13 9 -29 20 -37 l20 -14 -20 -18 c-24 -22 -26 -52 -3 -77 15
-17 15 -19 0 -36 -10 -10 -17 -27 -17 -37 0 -10 7 -27 17 -37 15 -17 15 -19 0
-36 -10 -10 -17 -27 -17 -37 0 -10 7 -27 17 -37 15 -17 15 -19 0 -36 -22 -24
-21 -55 1 -75 24 -22 50 -22 74 0 17 15 19 15 36 0 10 -10 27 -17 37 -17 10 0
27 7 37 17 17 15 19 15 36 0 10 -10 27 -17 37 -17 10 0 27 7 37 17 17 15 19
15 36 0 10 -10 27 -17 37 -17 10 0 27 7 37 17 17 15 19 15 36 0 36 -33 92 -8
92 40 0 24 -30 53 -55 53 -10 0 -27 -7 -37 -17 -17 -15 -19 -15 -36 0 -10 10
-27 17 -37 17 -10 0 -27 -7 -37 -17 -17 -15 -19 -15 -36 0 -10 10 -27 17 -37
17 -10 0 -27 -7 -37 -17 -17 -15 -19 -15 -36 0 -24 22 -50 22 -74 0 -17 -15
-20 -16 -35 0 -16 15 -15 18 0 35 22 24 22 50 0 74 -15 17 -15 19 0 36 22 25
21 55 -2 76 -19 17 -19 18 0 37 10 10 19 27 19 37 0 11 -9 27 -19 36 -19 17
-19 18 0 37 10 10 19 27 19 37 0 11 -9 27 -19 36 -18 16 -18 19 -3 35 16 16
19 16 45 -3 27 -20 30 -20 58 -4 27 16 31 16 58 1 27 -16 30 -16 54 0 24 16
28 16 55 0 28 -16 31 -16 56 0 16 11 26 27 26 41 0 27 -29 56 -55 56 -10 0
-27 -7 -37 -17 -17 -15 -19 -15 -36 0 -10 10 -27 17 -37 17 -10 0 -27 -7 -37
-17 -17 -15 -19 -15 -36 0 -10 10 -27 17 -37 17 -10 0 -27 -7 -37 -17 -17 -15
-19 -15 -37 1 -19 17 -19 18 0 37 10 10 19 27 19 37 0 11 -9 27 -19 36 -19 17
-19 18 0 37 10 10 19 27 19 37 0 11 -9 27 -19 36 -19 17 -19 18 0 37 10 10 19
27 19 37 0 11 -9 27 -19 36 -18 16 -18 19 -3 35 16 16 18 16 44 -3 23 -16 32
-18 53 -8 14 6 25 16 25 22 0 6 13 1 30 -11 25 -19 33 -21 55 -11 14 6 25 16
25 23 0 6 12 1 26 -10 15 -12 32 -21 39 -21 7 0 24 9 39 21 14 11 26 16 26 10
0 -7 11 -16 25 -23 19 -9 29 -8 50 6 45 29 24 96 -30 96 -13 0 -31 -7 -39 -16
-15 -14 -17 -14 -32 0 -20 20 -58 20 -78 0 -15 -14 -17 -14 -32 0 -20 21 -58
20 -79 0 -15 -15 -17 -15 -34 0 -10 9 -27 16 -39 16 -11 0 -28 -7 -37 -16 -15
-15 -17 -15 -34 0 -22 20 -55 21 -75 0z"/>
<path d="M6915 6904 c-23 -24 -15 -66 17 -83 25 -14 29 -14 57 7 17 12 31 18
31 12 0 -6 11 -16 25 -22 22 -10 30 -8 55 11 17 12 30 17 30 11 0 -6 11 -16
25 -22 22 -10 30 -8 55 11 17 12 30 17 30 11 0 -6 11 -15 25 -22 52 -23 100
46 59 86 -20 21 -53 20 -75 0 -17 -15 -19 -15 -34 0 -21 20 -53 20 -76 0 -17
-15 -19 -15 -34 0 -21 20 -59 21 -79 0 -15 -14 -17 -14 -32 0 -20 21 -58 20
-79 0z"/>
<path d="M7578 6909 c-28 -16 -23 -65 7 -85 21 -14 31 -15 50 -6 14 7 25 16
25 23 0 6 12 1 26 -10 33 -26 49 -26 72 -3 18 18 20 18 40 2 20 -17 20 -17 1
-33 -25 -22 -24 -62 1 -80 19 -13 19 -13 0 -30 -11 -9 -20 -28 -20 -41 0 -14
9 -31 20 -39 19 -13 19 -13 0 -30 -11 -9 -20 -28 -20 -41 0 -14 9 -31 20 -39
19 -13 19 -13 0 -30 -11 -9 -20 -28 -20 -41 0 -14 9 -31 20 -39 19 -13 19 -13
0 -30 -24 -21 -26 -54 -3 -79 15 -17 15 -19 0 -36 -10 -10 -17 -27 -17 -37 0
-10 7 -27 17 -37 15 -17 15 -19 0 -36 -10 -10 -17 -27 -17 -37 0 -10 7 -27 17
-37 15 -17 15 -19 0 -36 -10 -10 -17 -27 -17 -37 0 -10 7 -27 17 -37 15 -17
15 -19 0 -36 -22 -24 -21 -55 1 -75 26 -23 58 -21 76 5 20 28 20 47 0 69 -15
16 -15 20 0 41 21 30 20 51 -3 72 -19 17 -19 18 0 37 10 10 19 27 19 37 0 11
-9 27 -19 36 -19 17 -19 18 0 37 10 10 19 27 19 37 0 11 -9 27 -19 36 -19 17
-19 18 0 37 10 10 19 27 19 37 0 11 -9 27 -19 36 -19 17 -19 18 0 37 10 10 19
27 19 37 0 11 -9 27 -19 36 -19 17 -19 18 0 37 10 10 19 27 19 37 0 11 -9 27
-19 36 -19 17 -19 18 0 37 10 10 19 27 19 37 0 11 -9 27 -19 36 -19 17 -19 18
0 37 10 10 19 27 19 37 0 11 -9 27 -19 36 -18 16 -18 19 -3 35 16 16 18 16 44
-3 23 -16 32 -18 53 -8 14 6 25 16 25 22 0 6 13 1 30 -11 25 -19 33 -21 54
-11 14 6 28 23 32 37 13 51 -53 86 -91 49 -15 -15 -17 -15 -34 0 -23 20 -55
20 -76 0 -15 -15 -17 -15 -34 0 -23 20 -55 20 -76 0 -15 -15 -17 -15 -34 0
-10 9 -27 16 -39 16 -11 0 -28 -7 -37 -16 -15 -15 -17 -15 -34 0 -20 18 -48
20 -73 5z"/>
<path d="M2807 6792 c-23 -25 -21 -58 3 -75 l20 -14 -20 -18 c-11 -10 -20 -28
-20 -41 0 -13 9 -29 20 -37 l20 -14 -20 -18 c-11 -10 -20 -28 -20 -41 0 -13 9
-29 20 -37 l20 -14 -20 -18 c-11 -10 -20 -28 -20 -41 0 -13 9 -29 20 -37 l20
-14 -20 -18 c-26 -23 -26 -60 0 -78 l20 -14 -20 -18 c-26 -23 -26 -60 0 -78
l20 -14 -20 -18 c-24 -22 -26 -52 -3 -77 15 -17 15 -19 0 -36 -33 -36 -8 -92
40 -92 24 0 53 30 53 55 0 10 -7 27 -17 37 -15 17 -15 19 0 36 10 10 17 27 17
37 0 10 -7 27 -17 37 -15 17 -15 19 0 36 23 25 21 55 -3 77 l-20 18 20 14 c11
8 20 24 20 37 0 13 -9 31 -20 41 l-20 18 20 14 c11 8 20 24 20 37 0 13 -9 31
-20 41 l-20 18 20 14 c11 8 20 24 20 37 0 13 -9 31 -20 41 l-20 18 20 14 c11
8 20 24 20 37 0 13 -9 31 -20 41 l-20 18 20 14 c11 8 20 25 20 38 0 50 -60 73
-93 37z"/>
<path d="M3355 6790 c-23 -25 -13 -67 20 -82 52 -23 100 46 59 86 -21 22 -57
20 -79 -4z"/>
<path d="M3605 6786 c-13 -19 -14 -28 -4 -50 7 -14 16 -26 21 -26 5 0 -1 -13
-12 -28 -17 -23 -19 -33 -11 -55 6 -15 15 -27 21 -27 6 0 1 -13 -10 -28 -17
-23 -19 -33 -11 -55 6 -15 15 -27 21 -27 6 0 1 -13 -10 -28 -17 -23 -19 -33
-11 -55 6 -15 15 -27 21 -27 7 0 2 -12 -9 -27 -23 -28 -20 -59 6 -80 13 -10
12 -14 -7 -33 -23 -23 -20 -55 7 -77 13 -10 12 -14 -7 -33 -23 -23 -20 -55 7
-77 13 -10 12 -14 -7 -33 -23 -23 -20 -56 8 -77 35 -28 85 -4 85 42 0 16 -8
34 -19 42 -17 13 -17 13 0 26 24 17 24 66 1 83 -16 12 -16 14 -1 29 25 25 24
62 -1 82 -14 11 -14 14 1 28 25 25 24 62 -1 82 -14 11 -14 14 1 28 25 25 24
62 -1 82 -14 11 -13 15 5 38 22 27 20 51 -6 72 -12 10 -12 15 6 38 21 27 20
56 -4 76 -11 9 -11 15 6 36 29 37 7 83 -41 83 -19 0 -34 -8 -44 -24z"/>
<path d="M4162 6798 c-19 -19 -14 -66 7 -80 20 -12 20 -12 0 -26 -24 -16 -25
-59 -2 -85 17 -18 17 -19 0 -28 -9 -6 -17 -22 -17 -36 0 -15 8 -35 17 -46 17
-18 17 -19 0 -28 -22 -13 -22 -57 0 -81 15 -17 15 -19 0 -31 -25 -20 -26 -57
-1 -82 15 -14 15 -17 1 -28 -25 -20 -26 -57 -1 -82 15 -14 15 -17 1 -28 -25
-20 -26 -57 -1 -82 15 -15 15 -17 -1 -29 -38 -27 -12 -96 37 -96 22 0 58 34
58 55 0 8 -9 24 -20 35 l-20 20 20 20 c26 26 25 45 -1 71 -18 18 -19 22 -6 32
27 22 30 54 7 77 -19 19 -20 23 -7 33 26 21 29 52 6 80 -11 15 -16 27 -9 27 6
0 15 12 21 27 8 22 6 32 -11 55 -11 15 -16 28 -10 28 6 0 15 12 21 27 8 22 6
32 -11 55 -11 15 -16 28 -10 28 6 0 15 12 21 27 8 22 6 32 -11 55 -11 15 -16
28 -10 28 6 0 15 12 21 26 7 20 6 32 -6 50 -17 26 -62 33 -83 12z"/>
<path d="M4486 6794 c-22 -21 -20 -60 4 -77 19 -13 19 -13 0 -30 -26 -22 -26
-62 0 -80 l20 -14 -20 -18 c-11 -10 -20 -28 -20 -41 0 -13 9 -29 20 -37 l20
-14 -20 -18 c-11 -10 -20 -28 -20 -41 0 -13 9 -29 20 -37 l20 -14 -20 -18
c-26 -23 -26 -60 0 -78 l20 -14 -20 -18 c-24 -22 -26 -52 -3 -77 15 -17 15
-19 0 -36 -10 -10 -17 -27 -17 -37 0 -10 7 -27 17 -37 15 -17 15 -19 0 -36
-33 -36 -8 -92 40 -92 24 0 53 30 53 55 0 10 -7 27 -17 37 -15 17 -15 19 0 36
23 25 21 55 -3 77 l-20 18 20 14 c11 8 20 24 20 37 0 13 -9 31 -20 41 l-20 18
20 14 c11 8 20 24 20 37 0 13 -9 31 -20 41 l-20 18 20 14 c11 8 20 24 20 37 0
13 -9 31 -20 41 l-20 18 20 14 c11 8 20 24 20 37 0 13 -9 31 -20 41 l-20 18
20 14 c25 18 26 55 1 77 -19 17 -19 18 0 37 24 24 24 51 1 72 -23 21 -56 22
-76 1z"/>
<path d="M5037 6792 c-22 -24 -21 -48 2 -71 19 -19 19 -20 0 -37 -10 -9 -19
-25 -19 -36 0 -10 9 -27 19 -37 19 -19 19 -20 0 -37 -10 -9 -19 -25 -19 -36 0
-10 9 -27 19 -37 19 -19 19 -20 0 -37 -10 -9 -19 -25 -19 -36 0 -10 9 -27 19
-37 19 -19 19 -20 0 -37 -10 -9 -19 -25 -19 -36 0 -10 9 -27 19 -37 19 -19 19
-20 0 -37 -10 -9 -19 -25 -19 -36 0 -10 9 -27 19 -37 19 -19 19 -20 0 -37 -10
-9 -19 -25 -19 -36 0 -10 9 -27 19 -37 19 -19 19 -20 0 -37 -23 -21 -24 -42
-3 -72 28 -40 94 -17 94 33 0 10 -7 27 -17 37 -15 17 -15 19 0 36 10 10 17 27
17 37 0 10 -7 27 -17 37 -15 17 -15 19 0 36 10 10 17 27 17 37 0 10 -7 27 -17
37 -15 17 -15 19 0 36 23 25 21 58 -3 79 -19 17 -19 17 0 30 11 8 20 25 20 39
0 13 -9 32 -20 41 -19 17 -19 17 0 30 11 8 20 25 20 39 0 13 -9 32 -20 41 -19
17 -19 17 0 30 11 8 20 25 20 39 0 13 -9 32 -20 41 -19 17 -19 17 0 30 11 8
20 25 20 38 0 50 -60 73 -93 37z"/>
<path d="M6806 6794 c-22 -21 -20 -60 4 -77 19 -13 19 -13 0 -30 -26 -22 -26
-63 0 -79 19 -12 19 -13 -1 -34 -27 -28 -21 -64 12 -83 24 -13 29 -13 53 2 31
21 34 57 6 82 l-20 18 20 14 c25 18 26 55 1 77 -19 17 -19 18 0 37 24 24 24
51 1 72 -23 21 -56 22 -76 1z"/>
<path d="M7355 6790 c-23 -25 -13 -67 20 -82 52 -23 100 46 59 86 -21 22 -57
20 -79 -4z"/>
<path d="M6917 6462 c-25 -27 -21 -59 9 -79 25 -16 28 -16 56 0 27 16 31 16
55 0 24 -16 27 -16 54 0 27 15 31 15 58 -1 29 -16 31 -16 60 6 17 12 31 18 31
12 0 -6 11 -15 25 -22 52 -23 100 46 59 86 -20 21 -53 20 -76 -1 -17 -15 -19
-15 -36 0 -10 10 -27 17 -37 17 -10 0 -27 -7 -37 -17 -17 -15 -19 -15 -36 0
-10 10 -27 17 -37 17 -10 0 -27 -7 -37 -17 -17 -15 -19 -15 -36 0 -24 22 -55
21 -75 -1z"/>
<path d="M7357 6352 c-22 -24 -21 -48 2 -71 19 -19 19 -20 0 -37 -10 -9 -19
-25 -19 -36 0 -10 9 -27 19 -37 19 -19 19 -20 0 -37 -10 -9 -19 -25 -19 -36 0
-10 9 -27 19 -37 19 -19 19 -20 0 -37 -23 -21 -24 -42 -3 -72 28 -40 94 -17
94 33 0 10 -7 27 -17 37 -15 17 -15 19 0 36 10 10 17 27 17 37 0 10 -7 27 -17
37 -15 17 -15 19 0 36 10 10 17 27 17 37 0 10 -7 27 -17 37 -15 17 -15 19 0
36 10 10 17 28 17 40 0 47 -61 69 -93 34z"/>
<path d="M6807 6022 c-33 -36 -8 -92 40 -92 25 0 53 30 53 57 0 46 -62 69 -93
35z"/>
<path d="M2917 5912 c-10 -10 -17 -28 -17 -39 0 -24 30 -53 55 -53 10 0 27 7
37 17 17 15 19 15 36 0 25 -23 55 -21 77 3 l18 20 14 -20 c8 -11 24 -20 37
-20 13 0 31 9 41 20 l18 20 14 -20 c8 -11 24 -20 37 -20 13 0 31 9 41 20 l18
20 14 -20 c27 -39 93 -13 93 37 0 46 -67 70 -93 33 l-14 -20 -18 20 c-10 11
-28 20 -41 20 -13 0 -29 -9 -37 -20 l-14 -20 -18 20 c-22 24 -52 26 -77 3 -17
-15 -19 -15 -36 0 -10 10 -27 17 -37 17 -10 0 -27 -7 -37 -17 -17 -15 -19 -15
-36 0 -24 22 -55 21 -75 -1z"/>
<path d="M3726 5917 c-11 -8 -18 -26 -18 -42 0 -49 55 -72 90 -37 16 16 18 16
35 0 9 -10 26 -18 37 -18 11 0 28 8 38 18 16 16 18 16 35 0 9 -10 26 -18 37
-18 11 0 28 8 38 18 16 16 18 16 35 0 31 -32 78 -17 92 29 4 15 0 28 -14 42
-26 26 -55 27 -78 4 -17 -17 -19 -17 -35 0 -10 9 -27 17 -38 17 -11 0 -28 -8
-37 -17 -17 -17 -19 -17 -35 0 -10 9 -27 17 -38 17 -11 0 -28 -8 -37 -17 -17
-17 -19 -17 -35 0 -21 20 -47 22 -72 4z"/>
<path d="M4597 5912 c-10 -10 -17 -28 -17 -39 0 -24 30 -53 55 -53 10 0 27 7
37 17 17 15 19 15 36 0 10 -10 27 -17 37 -17 10 0 27 7 37 17 17 15 19 15 36
0 10 -10 27 -17 37 -17 10 0 27 7 37 17 17 15 19 15 36 0 36 -33 92 -8 92 40
0 24 -30 53 -55 53 -10 0 -27 -7 -37 -17 -17 -15 -19 -15 -36 0 -10 10 -27 17
-37 17 -10 0 -27 -7 -37 -17 -17 -15 -19 -15 -36 0 -10 10 -27 17 -37 17 -10
0 -27 -7 -37 -17 -17 -15 -19 -15 -36 0 -24 22 -55 21 -75 -1z"/>
<path d="M6917 5912 c-10 -10 -17 -28 -17 -39 0 -24 30 -53 55 -53 10 0 27 7
37 17 17 15 19 15 36 0 10 -10 27 -17 37 -17 10 0 27 7 37 17 17 15 19 15 36
0 10 -10 27 -17 37 -17 10 0 27 7 37 17 17 15 19 15 36 0 36 -33 92 -8 92 40
0 24 -30 53 -55 53 -10 0 -27 -7 -37 -17 -17 -15 -19 -15 -36 0 -10 10 -27 17
-37 17 -10 0 -27 -7 -37 -17 -17 -15 -19 -15 -36 0 -10 10 -27 17 -37 17 -10
0 -27 -7 -37 -17 -17 -15 -19 -15 -36 0 -24 22 -55 21 -75 -1z"/>
<path d="M2710 4785 l0 -915 115 0 115 0 2 463 3 462 53 -190 c30 -104 70
-247 89 -317 l36 -128 127 0 126 0 85 311 84 310 3 -455 2 -456 120 0 120 0 0
915 0 916 -122 -3 -121 -3 -138 -500 c-76 -275 -143 -518 -150 -540 -11 -39
-15 -28 -159 500 l-147 540 -122 3 -121 3 0 -916z"/>
<path d="M4207 5690 c-82 -21 -149 -77 -195 -163 l-27 -52 -3 -665 c-2 -488 0
-677 9 -710 28 -106 102 -189 194 -215 44 -13 90 -16 213 -13 146 3 160 5 207
29 60 31 129 112 147 171 10 33 13 195 13 718 l0 675 -28 60 c-35 74 -67 109
-132 143 -47 25 -60 26 -205 29 -85 1 -172 -2 -193 -7z m290 -264 l28 -24 0
-615 0 -615 -24 -26 c-23 -25 -30 -26 -122 -26 -54 0 -105 3 -114 6 -44 17
-45 29 -45 664 l0 602 29 29 c28 28 33 29 125 29 86 0 98 -2 123 -24z"/>
<path d="M4907 5668 c4 -18 86 -429 183 -913 l176 -880 122 -3 c67 -1 122 -1
122 0 0 2 81 408 180 903 99 495 180 906 180 913 0 10 -26 12 -117 10 l-117
-3 -121 -595 c-67 -327 -123 -601 -126 -607 -2 -7 -55 240 -117 550 -63 309
-118 583 -124 610 l-10 47 -119 0 -118 0 6 -32z"/>
<path d="M6000 4785 l0 -915 120 0 120 0 0 915 0 915 -120 0 -120 0 0 -915z"/>
<path d="M6430 4785 l0 -915 355 0 355 0 0 125 0 125 -235 0 -235 0 0 300 0
300 185 0 185 0 0 125 0 125 -185 0 -185 0 0 240 0 240 235 0 235 0 0 125 0
125 -355 0 -355 0 0 -915z"/>
<path d="M7552 5690 c-82 -17 -164 -88 -204 -175 -22 -48 -23 -61 -23 -290 0
-238 0 -241 26 -295 61 -132 125 -167 311 -176 158 -7 165 -8 183 -45 14 -25
15 -69 13 -290 -4 -317 5 -299 -147 -299 -92 0 -99 2 -122 26 -23 24 -24 34
-27 160 l-4 134 -120 0 -120 0 4 -168 c3 -166 4 -169 36 -235 68 -138 141
-170 374 -165 139 3 157 5 201 28 58 29 112 86 141 149 20 43 21 64 24 366 4
388 1 407 -88 496 -74 74 -118 89 -271 89 -110 0 -120 2 -146 24 l-28 24 0
177 0 177 28 24 c25 22 37 24 121 24 133 0 144 -12 148 -170 l3 -85 118 -3
119 -3 -4 143 c-3 133 -5 147 -31 200 -32 64 -80 112 -146 141 -38 18 -69 21
-186 23 -77 2 -159 -1 -183 -6z"/>
</g>
</svg>
